<svg preserveAspectRatio="none" width="100%" height="100%" overflow="visible" style="display: block;" viewBox="0 0 69 38" fill="none" xmlns="http://www.w3.org/2000/svg">
<g id="svg2034360610_3470">
<path id="Vector" d="M4.93243 23.1688C4.93243 19.4973 7.99791 16.5371 11.8009 16.5371C15.5809 16.5371 18.6694 19.3366 18.6694 23.1688C18.6694 26.8632 15.5809 29.8463 11.8009 29.8463C7.99791 29.8463 4.93243 27.0238 4.93243 23.1688ZM14.1135 27.2992C15.5195 26.8402 15.4734 24.8209 14.6436 22.7557C13.7908 20.6446 11.509 18.1434 9.64204 18.763C8.30522 19.1989 8.21303 21.333 9.22717 23.6506C10.1875 25.8765 12.2926 27.8958 14.1135 27.2992Z" fill="var(--fill-0, #323232)"/>
<path id="Vector_2" d="M19.9448 28.607C19.9448 27.5285 21.1203 27.6432 21.9501 26.5418C22.5263 25.7845 22.6646 24.9355 22.6646 23.4669C22.6646 20.7133 21.0973 20.8968 20.4519 19.8183C20.1523 19.3135 20.3827 18.8087 20.8668 18.4415C21.4199 18.0285 21.9501 18.0285 22.9872 17.386C24.1858 16.6287 24.785 16.0551 25.6148 16.3304C26.4445 16.5828 26.4445 17.7761 26.2371 19.1299C26.191 19.3824 26.168 19.6577 26.1449 19.9331C27.4356 17.8449 29.8788 16.0092 31.1926 15.8256C31.9071 15.7338 32.4141 15.7797 32.3681 16.491C32.345 16.9041 31.9532 18.6022 32.0223 20.0019C32.0915 21.3099 32.5294 22.5949 31.6766 22.9391C30.7546 23.3063 30.2015 21.6541 29.3717 20.8051C28.5189 19.9331 26.191 20.0249 26.0297 23.6734C26.0758 25.1879 26.2371 25.8763 26.7442 26.5418C27.597 27.6432 29.3948 27.1843 29.3717 28.5152C29.3487 29.2724 28.7264 29.6855 28.0349 29.6855C27.3434 29.6855 25.7992 29.5019 24.8081 29.5019C23.84 29.5019 22.5263 29.6855 21.3508 29.6855C20.498 29.6855 19.9448 29.2036 19.9448 28.607Z" fill="var(--fill-0, #323232)"/>
<path id="Vector_3" d="M33.5281 23.1686C33.5281 19.4971 36.2709 16.514 39.7513 16.514C41.5952 16.514 42.6785 17.3401 43.3469 18.281V17.1566C43.3469 13.072 41.2725 14.816 40.8807 13.6227C40.4888 12.4066 41.4338 12.5672 43.877 11.6723C45.3751 11.1215 46.4123 9.90535 47.2651 10.6855C48.0718 11.4198 46.712 13.072 46.712 18.977V21.8224C46.712 23.75 47.0347 25.2415 47.7031 26.2741C48.6711 27.7886 49.4087 28.1787 48.4867 29.0966C47.5878 29.9915 46.7581 29.6702 44.361 28.041C43.3699 29.1654 41.987 29.8538 40.2123 29.8538C36.5014 29.8462 33.5281 27.0237 33.5281 23.1686ZM41.3416 27.4826C42.8859 27.5056 43.6234 26.014 43.5313 23.7882C43.4391 21.5165 42.2866 18.8087 39.9818 18.7399C38.2531 18.671 37.6999 20.2773 37.8382 22.8015C37.9996 25.2109 39.3364 27.4597 41.3416 27.4826Z" fill="var(--fill-0, #323232)"/>
<path id="Vector_4" d="M49.4625 23.1688C49.4625 19.4973 52.5279 16.5371 56.331 16.5371C60.1109 16.5371 63.1995 19.3366 63.1995 23.1688C63.1995 26.8632 60.1109 29.8463 56.331 29.8463C52.5279 29.8463 49.4625 27.0238 49.4625 23.1688ZM58.6358 27.2992C60.0418 26.8402 59.9957 24.8209 59.1659 22.7557C58.3131 20.6446 56.0313 18.1434 54.1644 18.763C52.8276 19.1989 52.7354 21.333 53.7495 23.6506C54.7176 25.8765 56.815 27.8958 58.6358 27.2992Z" fill="var(--fill-0, #323232)"/>
<path id="Vector_5" d="M11.2554 14.0818C11.0249 14.0818 10.7714 14.0665 10.4871 14.0053C9.87248 13.8753 9.67273 13.5923 9.75724 12.9727C9.84175 12.3378 9.98004 11.7106 10.0799 11.0757C10.2336 10.0814 10.1491 9.09467 9.91089 8.1156C9.80333 7.67961 9.74187 7.23597 9.70346 6.79233C9.66504 6.39459 9.82638 6.15747 10.2105 6.03509C11.0172 5.78267 11.8009 5.77502 12.6153 5.98155C13.0532 6.09628 13.2069 6.3487 13.1761 6.79998C13.1608 7.04475 13.1454 7.29717 13.0609 7.52663C12.6383 8.76576 12.7536 10.0125 12.9764 11.267C13.0762 11.8406 13.13 12.4296 13.1761 13.0186C13.2145 13.5005 13.0609 13.7223 12.6153 13.9135C12.4616 13.9747 12.2849 14.0282 12.1236 14.0435C11.8623 14.0818 11.5934 14.0741 11.2554 14.0818Z" fill="var(--fill-0, #323232)"/>
</g>
</svg>
