<svg preserveAspectRatio="none" width="100%" height="100%" overflow="visible" style="display: block;" viewBox="0 0 112 62" fill="none" xmlns="http://www.w3.org/2000/svg">
<g id="svg-20345170_3463">
<path id="Vector" d="M8.00586 37.8015C8.00586 31.8112 12.9817 26.9814 19.1547 26.9814C25.2903 26.9814 30.3036 31.5491 30.3036 37.8015C30.3036 43.8293 25.2903 48.6964 19.1547 48.6964C12.9817 48.6964 8.00586 44.0913 8.00586 37.8015ZM22.9084 44.5406C25.1905 43.7918 25.1157 40.4971 23.7689 37.1276C22.3846 33.6831 18.6808 29.6022 15.6504 30.6131C13.4805 31.3244 13.3308 34.8063 14.977 38.5877C16.5358 42.2194 19.9528 45.5141 22.9084 44.5406Z" fill="var(--fill-0, white)"/>
<path id="Vector_2" d="M32.375 46.6747C32.375 44.9151 34.2831 45.1023 35.6299 43.3052C36.5652 42.0697 36.7897 40.6844 36.7897 38.2883C36.7897 33.7955 34.2457 34.095 33.1981 32.3354C32.7118 31.5117 33.0859 30.688 33.8715 30.089C34.7694 29.4151 35.6299 29.4151 37.3135 28.3668C39.2589 27.1313 40.2316 26.1953 41.5785 26.6446C42.9253 27.0564 42.9253 29.0032 42.5886 31.2122C42.5138 31.624 42.4764 32.0733 42.439 32.5226C44.534 29.1156 48.4998 26.1204 50.6323 25.8209C51.792 25.6711 52.6151 25.746 52.5403 26.9066C52.5029 27.5805 51.8669 30.3511 51.9791 32.6349C52.0913 34.7689 52.8022 36.8656 51.4179 37.4272C49.9214 38.0262 49.0235 35.3305 47.6767 33.9453C46.2924 32.5226 42.5138 32.6723 42.2519 38.6252C42.3267 41.0962 42.5886 42.2194 43.4117 43.3052C44.7959 45.1023 47.7141 44.3535 47.6767 46.525C47.6393 47.7605 46.6291 48.4344 45.5068 48.4344C44.3844 48.4344 41.8778 48.1349 40.269 48.1349C38.6977 48.1349 36.5652 48.4344 34.6572 48.4344C33.2729 48.4344 32.375 47.6482 32.375 46.6747Z" fill="var(--fill-0, white)"/>
<path id="Vector_3" d="M54.4219 37.8009C54.4219 31.8106 58.874 26.9434 64.5233 26.9434C67.5162 26.9434 69.2746 28.2913 70.3596 29.8263V27.9917C70.3596 21.3275 66.9925 24.1729 66.3565 22.226C65.7204 20.2417 67.2543 20.5038 71.2201 19.0437C73.6519 18.1451 75.3354 16.1608 76.7197 17.4338C78.0291 18.6318 75.8218 21.3275 75.8218 30.962V35.6045C75.8218 38.7494 76.3455 41.183 77.4305 42.8678C79.0018 45.3388 80.199 45.9752 78.7025 47.4728C77.2434 48.933 75.8966 48.4088 72.0057 45.7506C70.397 47.5851 68.1522 48.7083 65.2715 48.7083C59.2481 48.6959 54.4219 44.0908 54.4219 37.8009ZM67.1047 44.8396C69.6113 44.877 70.8085 42.4434 70.6589 38.8118C70.5092 35.1053 68.6386 30.6874 64.8974 30.5751C62.0915 30.4628 61.1936 33.0835 61.418 37.2019C61.6799 41.1331 63.8498 44.8021 67.1047 44.8396Z" fill="var(--fill-0, white)"/>
<path id="Vector_4" d="M80.2871 37.8015C80.2871 31.8112 85.2629 26.9814 91.436 26.9814C97.5716 26.9814 102.585 31.5491 102.585 37.8015C102.585 43.8293 97.5716 48.6964 91.436 48.6964C85.2629 48.6964 80.2871 44.0913 80.2871 37.8015ZM95.1772 44.5406C97.4594 43.7918 97.3845 40.4971 96.0377 37.1276C94.6534 33.6831 90.9496 29.6022 87.9192 30.6131C85.7493 31.3244 85.5997 34.8063 87.2458 38.5877C88.8171 42.2194 92.2216 45.5141 95.1772 44.5406Z" fill="var(--fill-0, white)"/>
<path id="Vector_5" d="M18.2703 22.976C17.8962 22.976 17.4846 22.9511 17.0232 22.8513C16.0256 22.6391 15.7013 22.1773 15.8385 21.1665C15.9757 20.1306 16.2001 19.1073 16.3623 18.0715C16.6117 16.4491 16.4745 14.8392 16.0879 13.2417C15.9133 12.5304 15.8136 11.8066 15.7512 11.0827C15.6888 10.4338 15.9507 10.0469 16.5743 9.84721C17.8837 9.43538 19.1557 9.4229 20.4776 9.75985C21.1885 9.94705 21.4379 10.3589 21.388 11.0952C21.363 11.4946 21.3381 11.9064 21.2009 12.2808C20.515 14.3025 20.7021 16.3368 21.0637 18.3835C21.2259 19.3194 21.3132 20.2804 21.388 21.2413C21.4503 22.0276 21.2009 22.3895 20.4776 22.7015C20.2282 22.8013 19.9414 22.8887 19.6795 22.9136C19.2555 22.976 18.819 22.9636 18.2703 22.976Z" fill="var(--fill-0, white)"/>
</g>
</svg>
